<mxfile host="app.diagrams.net" modified="2022-02-11T05:19:37.005Z" agent="5.0 (Macintosh; Intel Mac OS X 10_15_7) AppleWebKit/605.1.15 (KHTML, like Gecko) Version/15.2 Safari/605.1.15" etag="cNRnY6Wy1sBCGwIcrnaP" version="16.5.6" type="github">
  <diagram id="C5RBs43oDa-KdzZeNtuy" name="Page-1">
    <mxGraphModel dx="618" dy="551" grid="1" gridSize="10" guides="1" tooltips="1" connect="1" arrows="1" fold="1" page="1" pageScale="1" pageWidth="827" pageHeight="1169" math="0" shadow="0">
      <root>
        <mxCell id="WIyWlLk6GJQsqaUBKTNV-0" />
        <mxCell id="WIyWlLk6GJQsqaUBKTNV-1" parent="WIyWlLk6GJQsqaUBKTNV-0" />
        <mxCell id="WIyWlLk6GJQsqaUBKTNV-2" value="" style="rounded=0;html=1;jettySize=auto;orthogonalLoop=1;fontSize=11;endArrow=block;endFill=0;endSize=8;strokeWidth=1;shadow=0;labelBackgroundColor=none;edgeStyle=orthogonalEdgeStyle;" parent="WIyWlLk6GJQsqaUBKTNV-1" source="WIyWlLk6GJQsqaUBKTNV-3" edge="1">
          <mxGeometry relative="1" as="geometry">
            <mxPoint x="220" y="170" as="targetPoint" />
          </mxGeometry>
        </mxCell>
        <mxCell id="WIyWlLk6GJQsqaUBKTNV-3" value="Start" style="rounded=1;whiteSpace=wrap;html=1;fontSize=12;glass=0;strokeWidth=1;shadow=0;" parent="WIyWlLk6GJQsqaUBKTNV-1" vertex="1">
          <mxGeometry x="160" y="80" width="120" height="40" as="geometry" />
        </mxCell>
        <mxCell id="WIyWlLk6GJQsqaUBKTNV-7" value="아이스크림 높이 = 0&lt;br&gt;아이스크림 바높이 = 0" style="rounded=1;whiteSpace=wrap;html=1;fontSize=12;glass=0;strokeWidth=1;shadow=0;" parent="WIyWlLk6GJQsqaUBKTNV-1" vertex="1">
          <mxGeometry x="160" y="170" width="120" height="40" as="geometry" />
        </mxCell>
        <mxCell id="WIyWlLk6GJQsqaUBKTNV-9" value="Yes" style="edgeStyle=orthogonalEdgeStyle;rounded=0;html=1;jettySize=auto;orthogonalLoop=1;fontSize=11;endArrow=block;endFill=0;endSize=8;strokeWidth=1;shadow=0;labelBackgroundColor=none;entryX=0.5;entryY=0;entryDx=0;entryDy=0;" parent="WIyWlLk6GJQsqaUBKTNV-1" source="WIyWlLk6GJQsqaUBKTNV-10" target="taTwqAq6LD8FQXw7aBrm-21" edge="1">
          <mxGeometry x="-0.7222" y="20" relative="1" as="geometry">
            <mxPoint as="offset" />
            <mxPoint x="320" y="410" as="targetPoint" />
          </mxGeometry>
        </mxCell>
        <mxCell id="WIyWlLk6GJQsqaUBKTNV-10" value="아이스크림 높이 &amp;lt; 8" style="rhombus;whiteSpace=wrap;html=1;shadow=0;fontFamily=Helvetica;fontSize=12;align=center;strokeWidth=1;spacing=6;spacingTop=-4;" parent="WIyWlLk6GJQsqaUBKTNV-1" vertex="1">
          <mxGeometry x="140" y="410" width="160" height="80" as="geometry" />
        </mxCell>
        <mxCell id="WIyWlLk6GJQsqaUBKTNV-11" value="*********** 한줄 프린트" style="rounded=1;whiteSpace=wrap;html=1;fontSize=12;glass=0;strokeWidth=1;shadow=0;" parent="WIyWlLk6GJQsqaUBKTNV-1" vertex="1">
          <mxGeometry x="160" y="330" width="120" height="40" as="geometry" />
        </mxCell>
        <mxCell id="taTwqAq6LD8FQXw7aBrm-27" style="edgeStyle=orthogonalEdgeStyle;rounded=0;orthogonalLoop=1;jettySize=auto;html=1;exitX=1;exitY=0.5;exitDx=0;exitDy=0;entryX=1;entryY=0.5;entryDx=0;entryDy=0;endArrow=block;endFill=0;" edge="1" parent="WIyWlLk6GJQsqaUBKTNV-1" source="taTwqAq6LD8FQXw7aBrm-0" target="taTwqAq6LD8FQXw7aBrm-21">
          <mxGeometry relative="1" as="geometry" />
        </mxCell>
        <mxCell id="taTwqAq6LD8FQXw7aBrm-30" value="No" style="edgeLabel;html=1;align=center;verticalAlign=middle;resizable=0;points=[];" vertex="1" connectable="0" parent="taTwqAq6LD8FQXw7aBrm-27">
          <mxGeometry x="-0.5305" y="-3" relative="1" as="geometry">
            <mxPoint x="9" y="47" as="offset" />
          </mxGeometry>
        </mxCell>
        <mxCell id="taTwqAq6LD8FQXw7aBrm-29" style="edgeStyle=orthogonalEdgeStyle;rounded=0;orthogonalLoop=1;jettySize=auto;html=1;exitX=0.5;exitY=1;exitDx=0;exitDy=0;entryX=0.5;entryY=0;entryDx=0;entryDy=0;endArrow=block;endFill=0;" edge="1" parent="WIyWlLk6GJQsqaUBKTNV-1" source="taTwqAq6LD8FQXw7aBrm-0" target="taTwqAq6LD8FQXw7aBrm-28">
          <mxGeometry relative="1" as="geometry" />
        </mxCell>
        <mxCell id="taTwqAq6LD8FQXw7aBrm-31" value="Yes" style="edgeLabel;html=1;align=center;verticalAlign=middle;resizable=0;points=[];" vertex="1" connectable="0" parent="taTwqAq6LD8FQXw7aBrm-29">
          <mxGeometry x="-0.16" y="-1" relative="1" as="geometry">
            <mxPoint x="-19" y="-11" as="offset" />
          </mxGeometry>
        </mxCell>
        <mxCell id="taTwqAq6LD8FQXw7aBrm-0" value="아이스크림 바 높이 &amp;lt; 4" style="rhombus;whiteSpace=wrap;html=1;shadow=0;fontFamily=Helvetica;fontSize=12;align=center;strokeWidth=1;spacing=6;spacingTop=-4;" vertex="1" parent="WIyWlLk6GJQsqaUBKTNV-1">
          <mxGeometry x="342" y="410" width="156" height="80" as="geometry" />
        </mxCell>
        <mxCell id="taTwqAq6LD8FQXw7aBrm-5" value="No" style="endArrow=block;html=1;rounded=0;endFill=0;exitX=0;exitY=0.5;exitDx=0;exitDy=0;" edge="1" parent="WIyWlLk6GJQsqaUBKTNV-1" source="WIyWlLk6GJQsqaUBKTNV-10">
          <mxGeometry x="-0.7714" y="-10" width="50" height="50" relative="1" as="geometry">
            <mxPoint x="160" y="500" as="sourcePoint" />
            <mxPoint x="220" y="220" as="targetPoint" />
            <Array as="points">
              <mxPoint x="120" y="450" />
              <mxPoint x="120" y="220" />
            </Array>
            <mxPoint as="offset" />
          </mxGeometry>
        </mxCell>
        <mxCell id="taTwqAq6LD8FQXw7aBrm-14" style="edgeStyle=orthogonalEdgeStyle;rounded=0;orthogonalLoop=1;jettySize=auto;html=1;exitX=0.5;exitY=1;exitDx=0;exitDy=0;entryX=0.5;entryY=0;entryDx=0;entryDy=0;endArrow=block;endFill=0;" edge="1" parent="WIyWlLk6GJQsqaUBKTNV-1" source="taTwqAq6LD8FQXw7aBrm-10" target="WIyWlLk6GJQsqaUBKTNV-11">
          <mxGeometry relative="1" as="geometry" />
        </mxCell>
        <mxCell id="taTwqAq6LD8FQXw7aBrm-10" value="아이스크림 높이 + 1" style="rounded=1;whiteSpace=wrap;html=1;fontSize=12;glass=0;strokeWidth=1;shadow=0;" vertex="1" parent="WIyWlLk6GJQsqaUBKTNV-1">
          <mxGeometry x="160" y="250" width="120" height="40" as="geometry" />
        </mxCell>
        <mxCell id="taTwqAq6LD8FQXw7aBrm-19" value="" style="endArrow=block;html=1;rounded=0;entryX=0.5;entryY=0;entryDx=0;entryDy=0;exitX=0.5;exitY=1;exitDx=0;exitDy=0;endFill=0;" edge="1" parent="WIyWlLk6GJQsqaUBKTNV-1" source="WIyWlLk6GJQsqaUBKTNV-11" target="WIyWlLk6GJQsqaUBKTNV-10">
          <mxGeometry width="50" height="50" relative="1" as="geometry">
            <mxPoint x="120" y="350" as="sourcePoint" />
            <mxPoint x="170" y="300" as="targetPoint" />
          </mxGeometry>
        </mxCell>
        <mxCell id="taTwqAq6LD8FQXw7aBrm-20" value="" style="endArrow=block;html=1;rounded=0;entryX=0.5;entryY=0;entryDx=0;entryDy=0;exitX=0.5;exitY=1;exitDx=0;exitDy=0;endFill=0;" edge="1" parent="WIyWlLk6GJQsqaUBKTNV-1" source="WIyWlLk6GJQsqaUBKTNV-7" target="taTwqAq6LD8FQXw7aBrm-10">
          <mxGeometry width="50" height="50" relative="1" as="geometry">
            <mxPoint x="120" y="350" as="sourcePoint" />
            <mxPoint x="170" y="300" as="targetPoint" />
          </mxGeometry>
        </mxCell>
        <mxCell id="taTwqAq6LD8FQXw7aBrm-24" style="edgeStyle=orthogonalEdgeStyle;rounded=0;orthogonalLoop=1;jettySize=auto;html=1;exitX=0.5;exitY=1;exitDx=0;exitDy=0;entryX=0.5;entryY=0;entryDx=0;entryDy=0;endArrow=block;endFill=0;" edge="1" parent="WIyWlLk6GJQsqaUBKTNV-1" source="taTwqAq6LD8FQXw7aBrm-21" target="taTwqAq6LD8FQXw7aBrm-22">
          <mxGeometry relative="1" as="geometry" />
        </mxCell>
        <mxCell id="taTwqAq6LD8FQXw7aBrm-21" value="아이스크바 높이 + 1" style="rounded=1;whiteSpace=wrap;html=1;fontSize=12;glass=0;strokeWidth=1;shadow=0;" vertex="1" parent="WIyWlLk6GJQsqaUBKTNV-1">
          <mxGeometry x="360" y="250" width="120" height="40" as="geometry" />
        </mxCell>
        <mxCell id="taTwqAq6LD8FQXw7aBrm-26" style="edgeStyle=orthogonalEdgeStyle;rounded=0;orthogonalLoop=1;jettySize=auto;html=1;exitX=0.5;exitY=1;exitDx=0;exitDy=0;entryX=0.5;entryY=0;entryDx=0;entryDy=0;endArrow=block;endFill=0;" edge="1" parent="WIyWlLk6GJQsqaUBKTNV-1" source="taTwqAq6LD8FQXw7aBrm-22" target="taTwqAq6LD8FQXw7aBrm-0">
          <mxGeometry relative="1" as="geometry" />
        </mxCell>
        <mxCell id="taTwqAq6LD8FQXw7aBrm-22" value="&amp;nbsp; &amp;nbsp; | | &amp;nbsp; &amp;nbsp; 한줄 프린트" style="rounded=1;whiteSpace=wrap;html=1;fontSize=12;glass=0;strokeWidth=1;shadow=0;" vertex="1" parent="WIyWlLk6GJQsqaUBKTNV-1">
          <mxGeometry x="360" y="330" width="120" height="40" as="geometry" />
        </mxCell>
        <mxCell id="taTwqAq6LD8FQXw7aBrm-28" value="End" style="rounded=1;whiteSpace=wrap;html=1;fontSize=12;glass=0;strokeWidth=1;shadow=0;" vertex="1" parent="WIyWlLk6GJQsqaUBKTNV-1">
          <mxGeometry x="360" y="540" width="120" height="40" as="geometry" />
        </mxCell>
      </root>
    </mxGraphModel>
  </diagram>
</mxfile>
